<svg width="195" height="195" viewBox="0 0 195 195" fill="none" xmlns="http://www.w3.org/2000/svg">
<g filter="url(#filter0_d_3091_18678)">
<circle cx="97.5" cy="93.5" r="89.5" fill="#EDA624"/>
</g>
<path d="M59.992 48.232V54.208C59.992 54.478 59.884 54.532 59.542 54.55C59.182 54.568 57.832 54.568 56.77 54.514C57.076 55.09 57.436 55.99 57.562 56.602C59.11 56.602 60.28 56.566 61.126 56.26C61.972 55.972 62.242 55.396 62.242 54.28V48.232H59.992ZM54.574 40.726V42.706H65.626V40.726H54.574ZM64.816 40.726V41.194C64.006 42.22 62.116 43.786 60.55 44.668C60.91 45.01 61.558 45.676 61.846 46.108C63.772 45.046 65.896 43.336 67.426 41.824L65.878 40.6L65.392 40.726H64.816ZM52.828 46.594V48.646H67.534V46.594H52.828ZM57.094 45.01C59.164 45.784 62.188 47.026 63.646 47.746L64.798 45.892C63.232 45.19 60.136 44.056 58.174 43.39L57.094 45.01ZM66.814 46.594V46.954C66.31 48.268 65.392 49.852 64.636 50.86L66.472 51.922C67.498 50.716 68.578 48.898 69.37 47.206L67.606 46.45L67.228 46.594H66.814ZM78.874 47.872C79.792 49.168 80.746 50.914 81.07 52.03L82.96 51.058C82.564 49.906 81.538 48.232 80.602 46.99L78.874 47.872ZM79.468 42.778V44.812H85.93V42.778H79.468ZM85.012 42.778V43.21C84.796 50.536 84.544 53.578 83.95 54.19C83.752 54.442 83.536 54.496 83.176 54.496C82.708 54.496 81.664 54.496 80.53 54.406C80.926 55.018 81.214 55.954 81.25 56.566C82.312 56.62 83.41 56.62 84.076 56.53C84.832 56.404 85.318 56.206 85.822 55.522C86.578 54.568 86.812 51.706 87.082 43.768C87.1 43.498 87.1 42.778 87.1 42.778H85.012ZM79.576 39.7C78.982 42.058 77.884 44.416 76.516 45.838C77.056 46.144 78.01 46.792 78.442 47.152C79.81 45.514 81.052 42.868 81.808 40.186L79.576 39.7ZM73.24 39.736C72.826 40.996 72.052 42.724 71.404 43.804L72.862 44.398C73.564 43.408 74.41 41.806 75.148 40.402L73.24 39.736ZM75.4 41.86C74.446 43.786 72.808 46.432 71.422 48.052L72.736 48.718C74.122 47.188 75.886 44.686 77.218 42.616L75.4 41.86ZM70.468 44.002C71.386 44.866 72.484 46.108 72.934 46.972L74.032 45.28C73.564 44.488 72.448 43.336 71.476 42.508L70.468 44.002ZM74.95 46.198C75.634 47.44 76.3 49.078 76.516 50.104L78.154 49.348C77.92 48.304 77.2 46.738 76.48 45.532L74.95 46.198ZM70.45 47.656L70.63 49.528C72.412 49.42 74.752 49.258 77.02 49.078V47.368C74.608 47.494 72.124 47.602 70.45 47.656ZM75.274 50.716C75.706 51.814 76.174 53.272 76.336 54.208L78.028 53.596C77.812 52.678 77.326 51.274 76.858 50.194L75.274 50.716ZM71.224 50.302C71.08 51.832 70.792 53.434 70.27 54.496C70.72 54.676 71.53 55.054 71.908 55.288C72.43 54.136 72.826 52.336 73.006 50.608L71.224 50.302ZM73.312 48.61V56.638H75.238V48.61H73.312ZM101.464 47.062V42.346C101.464 41.626 101.536 41.05 101.572 40.69H98.998C99.07 41.032 99.106 41.626 99.106 42.346V47.134C99.106 51.562 97.594 53.128 94.102 54.334L96.028 56.152C100.384 54.226 101.464 51.508 101.464 47.062ZM94.948 40.834H92.392C92.464 41.392 92.5 41.95 92.5 42.454V48.898C92.5 49.708 92.446 50.446 92.41 50.788H94.93C94.894 50.446 94.84 49.708 94.84 48.898V42.472C94.84 41.752 94.912 41.176 94.948 40.834ZM89.026 44.074V46.522C89.44 46.504 90.07 46.468 90.97 46.468H102.796C103.732 46.468 104.38 46.468 104.776 46.522V44.128C104.272 44.2 103.732 44.254 102.778 44.254H90.97C90.088 44.254 89.35 44.128 89.026 44.074ZM107.116 48.016L108.232 50.284C111.076 49.438 113.992 48.088 116.026 46.882C118.15 45.604 120.346 43.912 121.984 42.256L120.04 40.42C118.87 41.842 116.818 43.642 114.982 44.776C112.966 46.018 110.338 47.188 107.116 48.016ZM114.604 45.946V53.452C114.604 54.244 114.532 55.378 114.46 55.81H117.322C117.196 55.36 117.16 54.244 117.16 53.452V45.334L114.604 45.946ZM129.634 53.29C129.634 53.992 129.58 55.09 129.454 55.792H132.28C132.19 55.054 132.118 53.794 132.118 53.29C132.118 51.958 132.1 44.92 132.1 42.94C132.1 42.184 132.19 41.41 132.262 40.762H129.454C129.58 41.41 129.634 42.292 129.634 42.94C129.634 44.452 129.634 51.904 129.634 53.29ZM131.578 45.424V48.016C133.54 48.664 136.564 49.816 138.616 50.878L139.624 48.376C137.86 47.512 133.972 46.09 131.578 45.424ZM88.666 70.654L90.844 72.886C91.168 72.418 91.582 71.77 91.996 71.194C92.77 70.168 94.03 68.386 94.75 67.468C95.272 66.82 95.614 66.73 96.262 67.414C97.09 68.368 98.44 70.096 99.556 71.41C100.708 72.76 102.238 74.488 103.516 75.712L105.388 73.552C103.678 72.022 102.13 70.42 100.978 69.16C99.916 67.99 98.494 66.136 97.252 64.948C95.938 63.67 94.786 63.796 93.526 65.236C92.392 66.532 91.024 68.386 90.178 69.25C89.638 69.808 89.206 70.222 88.666 70.654Z" fill="white"/>
<path d="M93.7109 92.2973H100.285V89.0101C100.285 88.1383 100.632 87.3022 101.248 86.6858C101.864 86.0693 102.701 85.723 103.572 85.723H113.434C114.306 85.723 115.142 86.0693 115.758 86.6858C116.375 87.3022 116.721 88.1383 116.721 89.0101V92.2973H129.87V79.1486C129.87 75.6614 128.484 72.317 126.019 69.8511C123.553 67.3853 120.208 66 116.721 66H77.2751C73.7879 66 70.4435 67.3853 67.9776 69.8511C65.5118 72.317 64.1265 75.6614 64.1265 79.1486V92.2973H77.2751V89.0101C77.2751 88.1383 77.6214 87.3022 78.2379 86.6858C78.8544 86.0693 79.6905 85.723 80.5623 85.723H90.4238C91.2956 85.723 92.1317 86.0693 92.7481 86.6858C93.3646 87.3022 93.7109 88.1383 93.7109 89.0101V92.2973Z" fill="white"/>
<path d="M67.4153 98.8701C63.0563 98.8701 58.8757 100.602 55.7934 103.684C52.7111 106.766 50.9795 110.947 50.9795 115.306V141.603C50.9795 142.475 51.3258 143.311 51.9423 143.928C52.5587 144.544 53.3948 144.89 54.2667 144.89C55.1385 144.89 55.9746 144.544 56.591 143.928C57.2075 143.311 57.5538 142.475 57.5538 141.603V125.167H136.446V141.603C136.446 142.475 136.792 143.311 137.408 143.928C138.025 144.544 138.861 144.89 139.733 144.89C140.605 144.89 141.441 144.544 142.057 143.928C142.674 143.311 143.02 142.475 143.02 141.603V115.306C143.02 110.947 141.288 106.766 138.206 103.684C135.124 100.602 130.943 98.8701 126.584 98.8701H67.4153Z" fill="white"/>
<defs>
<filter id="filter0_d_3091_18678" x="0" y="0" width="195" height="195" filterUnits="userSpaceOnUse" color-interpolation-filters="sRGB">
<feFlood flood-opacity="0" result="BackgroundImageFix"/>
<feColorMatrix in="SourceAlpha" type="matrix" values="0 0 0 0 0 0 0 0 0 0 0 0 0 0 0 0 0 0 127 0" result="hardAlpha"/>
<feOffset dy="4"/>
<feGaussianBlur stdDeviation="4"/>
<feComposite in2="hardAlpha" operator="out"/>
<feColorMatrix type="matrix" values="0 0 0 0 0 0 0 0 0 0 0 0 0 0 0 0 0 0 0.25 0"/>
<feBlend mode="normal" in2="BackgroundImageFix" result="effect1_dropShadow_3091_18678"/>
<feBlend mode="normal" in="SourceGraphic" in2="effect1_dropShadow_3091_18678" result="shape"/>
</filter>
</defs>
</svg>
