<svg width="108" height="98" viewBox="0 0 108 98" fill="none" xmlns="http://www.w3.org/2000/svg">
<g filter="url(#filter0_d_3091_18688)">
<path d="M101.581 18.4437C100.029 14.8345 97.7918 11.5639 94.9942 8.81488C92.1945 6.05771 88.8935 3.86662 85.2709 2.36077C81.5144 0.793101 77.4854 -0.00932399 73.4177 8.17389e-05C67.711 8.17389e-05 62.1432 1.57 57.3047 4.5354C56.1472 5.24477 55.0475 6.02392 54.0057 6.87283C52.9639 6.02392 51.8643 5.24477 50.7067 4.5354C45.8682 1.57 40.3005 8.17389e-05 34.5938 8.17389e-05C30.4845 8.17389e-05 26.5026 0.790856 22.7406 2.36077C19.1059 3.87255 15.8301 6.04717 13.0172 8.81488C10.216 11.5608 7.97821 14.8322 6.43083 18.4437C4.82185 22.1999 4 26.1886 4 30.2937C4 34.1662 4.78713 38.2014 6.34981 42.3065C7.65783 45.737 9.53304 49.2955 11.9291 52.8889C15.7259 58.5755 20.9464 64.5063 27.4286 70.5185C38.1706 80.4846 48.8084 87.3689 49.2598 87.648L52.0032 89.4156C53.2186 90.1948 54.7813 90.1948 55.9967 89.4156L58.7401 87.648C59.1915 87.3573 69.8177 80.4846 80.5713 70.5185C87.0535 64.5063 92.274 58.5755 96.0707 52.8889C98.4668 49.2955 100.354 45.737 101.65 42.3065C103.213 38.2014 104 34.1662 104 30.2937C104.011 26.1886 103.19 22.1999 101.581 18.4437Z" fill="white"/>
</g>
<defs>
<filter id="filter0_d_3091_18688" x="0" y="0" width="108" height="98" filterUnits="userSpaceOnUse" color-interpolation-filters="sRGB">
<feFlood flood-opacity="0" result="BackgroundImageFix"/>
<feColorMatrix in="SourceAlpha" type="matrix" values="0 0 0 0 0 0 0 0 0 0 0 0 0 0 0 0 0 0 127 0" result="hardAlpha"/>
<feOffset dy="4"/>
<feGaussianBlur stdDeviation="2"/>
<feComposite in2="hardAlpha" operator="out"/>
<feColorMatrix type="matrix" values="0 0 0 0 0 0 0 0 0 0 0 0 0 0 0 0 0 0 0.25 0"/>
<feBlend mode="normal" in2="BackgroundImageFix" result="effect1_dropShadow_3091_18688"/>
<feBlend mode="normal" in="SourceGraphic" in2="effect1_dropShadow_3091_18688" result="shape"/>
</filter>
</defs>
</svg>
