<svg width="100" height="90" viewBox="0 0 100 90" fill="none" xmlns="http://www.w3.org/2000/svg">
<path d="M97.5806 18.4437C96.029 14.8345 93.7918 11.5639 90.9942 8.81488C88.1945 6.05771 84.8935 3.86662 81.2709 2.36077C77.5144 0.793101 73.4854 -0.00932399 69.4177 8.17389e-05C63.711 8.17389e-05 58.1432 1.57 53.3047 4.5354C52.1472 5.24477 51.0475 6.02392 50.0057 6.87283C48.9639 6.02392 47.8643 5.24477 46.7067 4.5354C41.8682 1.57 36.3005 8.17389e-05 30.5938 8.17389e-05C26.4845 8.17389e-05 22.5026 0.790856 18.7406 2.36077C15.1059 3.87255 11.8301 6.04717 9.01724 8.81488C6.21595 11.5608 3.97821 14.8322 2.43083 18.4437C0.821853 22.1999 0 26.1886 0 30.2937C0 34.1662 0.787127 38.2014 2.34981 42.3065C3.65783 45.737 5.53304 49.2955 7.92915 52.8889C11.7259 58.5755 16.9464 64.5063 23.4286 70.5185C34.1706 80.4846 44.8084 87.3689 45.2598 87.648L48.0032 89.4156C49.2186 90.1948 50.7813 90.1948 51.9967 89.4156L54.7401 87.648C55.1915 87.3573 65.8177 80.4846 76.5713 70.5185C83.0535 64.5063 88.274 58.5755 92.0707 52.8889C94.4668 49.2955 96.3536 45.737 97.6501 42.3065C99.2127 38.2014 99.9999 34.1662 99.9999 30.2937C100.011 26.1886 99.1896 22.1999 97.5806 18.4437Z" fill="#FF4949"/>
</svg>
